<?xml version="1.0" encoding="UTF-8" standalone="no"?>
<svg
   width="740.59235"
   height="740.59198"
   viewBox="0 0 740.59235 740.59198"
   version="1.1"
   xml:space="preserve"
   style="clip-rule:evenodd;fill-rule:evenodd;stroke-linejoin:round;stroke-miterlimit:2"
   id="svg11"
   xmlns="http://www.w3.org/2000/svg"
   xmlns:svg="http://www.w3.org/2000/svg"
   xmlns:serif="http://www.serif.com/"><defs
   id="defs11" />
    <g
   id="Logo1"
   transform="matrix(0.936772,0,0,0.564627,1081.5696,-90.097775)">
        <rect
   x="-1379.91"
   y="-35.921001"
   width="1258.52"
   height="1703.35"
   style="fill:none"
   id="rect1" />
        <g
   transform="matrix(0.10675,0,0,-0.177108,-1295.7,1686.92)"
   id="g11">
            
            
            <g
   id="Border-1"
   serif:id="Border 1"
   transform="matrix(8.65672,0,0,-8.65672,704.085,8721.54)">
                <g
   id="g12"
   transform="translate(7.373777e-4,0.00207656)"><g
     id="Background"
     transform="matrix(1.1258595,0,0,1.1258595,-75.622187,-91.692927)"
     style="clip-rule:evenodd;fill-rule:evenodd;stroke-linejoin:round;stroke-miterlimit:2">
                <circle
   cx="510.509"
   cy="471.40302"
   r="409.71399"
   style="fill:none"
   id="circle1" />
            </g><g
     id="Logo"
     transform="matrix(1.1551719,0,0,1.1551719,-24.152912,-28.358316)"
     style="clip-rule:evenodd;fill-rule:evenodd;stroke-linejoin:round;stroke-miterlimit:2;fill:currentColor">
                <g
   transform="matrix(0.1,0,0,-0.1,-59.0229,922.674)"
   id="g3"
   style="fill:currentColor">
                    <g
   transform="matrix(10,0,0,-10,590.229,9226.74)"
   id="g1"
   style="fill:currentColor">
                        <path
   d="m 691.234,651.385 c -202.547,180.681 -468.756,53.848 -535.386,-59.722 8.365,-0.067 28.723,-9.795 38.104,-16.948 12.07,-9.203 21.572,-21.023 35.672,-73.323 5.5,-20.4 9.22,-47.803 18.02,-88.003 14.1,-64.5 33.23,-114.319 57.624,-151.528 20.264,-30.91 70.031,-73.297 129.345,-84.252 93.455,-17.26 144.77,31.457 153.143,38.787 15.74,-4.879 43.15,0.579 58.931,13.173 16.02,12.785 26.532,40.182 20.385,62.915 -5.74,21.224 -17.199,34.536 -35.361,43.968 -71.873,37.328 -57.798,146.928 -43.822,184.906 23.201,63.041 51.392,114.171 103.345,130.027 z M 652.228,301.023 c 4.371,-1.73 12.945,-49.045 -26.817,-68.733 -8.241,-4.08 -27.598,-6.854 -39.247,-2.082 -27.127,-22.321 -40.083,-28.735 -60.272,-36.064 -23.978,-8.704 -74.048,-9.723 -103.515,0.53 -31.1,8.2 -69.7,32 -90,55.6 -20.5,23.7 -40.295,61.885 -53.695,102.285 -15,45.4 -28.263,120.164 -28.432,160.209 -0.405,95.769 48.042,211.468 215.727,220.606 78.709,4.289 89.6,-57.6 87.7,-100.2 -3.456,-77.491 -26.108,-159.672 -71.44,-198.573 -16.975,-14.568 -42.063,-20.337 -47.06,-28.072 -7.023,-10.87 8.904,-41.229 26.958,-58.356 20.853,-19.782 48.426,-30.71 48.354,-30.78 -5.87,-5.687 -15.622,-22.133 -1.093,-41.88 28.399,-38.6 60.989,-39.976 62.472,-39.439 0.803,0.29 -17.835,8.214 -34.735,23.11 -16.834,14.838 -32.904,33.172 -24.692,48.978 4.135,7.959 24.493,19.833 70.536,-0.303 10.644,-4.656 29.876,-16.588 27.119,-34.658 -1.051,-6.888 -3.926,-9.524 -8.599,-10.271 -12.178,-1.947 -15.242,-11.027 -8.004,-16.672 9.295,-7.248 17.603,-8.879 28.775,-7.961 7.036,0.579 10.95,1.231 13.928,4.069 3.181,3.031 3.231,9.872 -0.385,15.841 -4.89,8.07 2.81,48.203 16.417,42.816 z M 526.606,321.86 c -3.528,-0.531 -5.69,-1.367 -7.304,-2.344 -9.385,6.441 -18.123,14.607 -26.472,28.087 -16.734,27.016 -18.822,57.905 -17.477,58.379 1.236,0.437 1.013,-30.366 25.018,-61.633 9.18,-11.957 17.87,-18.008 26.235,-22.489 z"
   style="fill:currentColor"
   id="path1" />
                    </g>
                    <g
   transform="rotate(6.9458926,5259.2811,6777.6778)"
   id="g2"
   style="fill:currentColor">
                        <path
   d="m 5131.54,6966.49 c -193.13,-70.89 -288.92,-287.6 -266.45,-372.77 13.97,-52.95 299.54,-83.33 501.94,14.86 185.4,89.94 317.76,227.77 284.6,294.62 -23.84,48.05 -131.43,45.9 -225.1,60.82 -93.88,14.96 -173.93,46.91 -294.99,2.47 z"
   style="fill:currentColor;fill-rule:nonzero"
   id="path2" />
                    </g>
                </g>
                <g
   transform="matrix(1.18412,0.207529,-0.206127,1.17612,330.633,-13.8407)"
   id="g4"
   style="fill:currentColor">
                    <path
   d="m 214.358,227.235 c 3.247,6.981 -28.982,0.441 -62.474,24.472 -37.797,27.12 -46.836,60.427 -48.165,59.615 -1.446,-0.883 10.35,-33.645 38.274,-58.184 30.862,-27.12 69.01,-33.118 72.365,-25.903 z"
   style="fill:currentColor"
   id="path3" />
                </g>
                <g
   transform="matrix(0.966134,-0.0415814,0.0388542,0.902769,310.734,110.59)"
   id="g5"
   style="fill:currentColor">
                    <path
   d="m 214.358,227.235 c 3.247,6.981 -28.982,0.441 -62.474,24.472 -37.797,27.12 -46.836,60.427 -48.165,59.615 -1.446,-0.883 10.35,-33.645 38.274,-58.184 30.862,-27.12 69.01,-33.118 72.365,-25.903 z"
   style="fill:currentColor"
   id="path4" />
                </g>
                <g
   transform="translate(-0.278048,-0.278048)"
   id="g6"
   style="fill:currentColor">
                    <path
   d="m 516.904,320.904 c 10.83,-8.458 25.329,-13.601 27.672,-10.533 2.349,3.076 -6.763,4.672 -18.671,12.828 -4.737,-0.209 -6.932,-1.061 -9.001,-2.295 z"
   style="fill:currentColor"
   id="path5" />
                </g>
                <g
   transform="matrix(0.760069,0.324638,-0.335192,0.784779,444.933,39.7841)"
   id="g7"
   style="fill:currentColor">
                    <path
   d="m 214.358,227.235 c 3.247,6.981 -28.982,0.441 -62.474,24.472 -37.797,27.12 -46.836,60.427 -48.165,59.615 -1.446,-0.883 10.35,-33.645 38.274,-58.184 30.862,-27.12 69.01,-33.118 72.365,-25.903 z"
   style="fill:currentColor"
   id="path6" />
                </g>
                <g
   transform="matrix(-0.391193,0.169162,0.280637,0.648979,665.967,80.438)"
   id="g8"
   style="fill:currentColor">
                    <path
   d="m 214.358,227.235 c 3.247,6.981 -28.982,0.441 -62.474,24.472 -37.797,27.12 -46.836,60.427 -48.165,59.615 -1.446,-0.883 10.35,-33.645 38.274,-58.184 30.862,-27.12 69.01,-33.118 72.365,-25.903 z"
   style="fill:currentColor"
   id="path7" />
                </g>
                <g
   transform="matrix(-0.474761,0.120136,0.248622,0.982514,690.745,23.9621)"
   id="g9"
   style="fill:currentColor">
                    <path
   d="m 214.358,227.235 c 3.247,6.981 -28.982,0.441 -62.474,24.472 -37.797,27.12 -46.836,60.427 -48.165,59.615 -1.446,-0.883 10.35,-33.645 38.274,-58.184 30.862,-27.12 69.01,-33.118 72.365,-25.903 z"
   style="fill:currentColor"
   id="path8" />
                </g>
                <g
   transform="matrix(-0.376649,0.0512899,0.117789,0.864987,706.622,78.2042)"
   id="g10"
   style="fill:currentColor">
                    <path
   d="m 214.358,227.235 c 3.247,6.981 -28.982,0.441 -62.474,24.472 -37.797,27.12 -46.836,60.427 -48.165,59.615 -1.446,-0.883 10.35,-33.645 38.274,-58.184 30.862,-27.12 69.01,-33.118 72.365,-25.903 z"
   style="fill:currentColor"
   id="path9" />
                </g>
                <path
   d="m 655.176,300.083 c 0.397,-1.133 0.614,-2.433 0.65,-2.649 0.123,-0.739 0.586,-1.566 1.048,-2.242 5.005,3.381 10.883,9.106 16.721,17.724 13.408,19.793 21.71,47.527 21.269,48.365 -0.404,0.771 -7.732,-27.575 -25.163,-49.096 -5.466,-6.748 -10.421,-10.193 -14.525,-12.102 z"
   style="fill:currentColor"
   id="path10" />
            </g><path
     d="m 499.14,11.287 c 236.084,0 427.754,191.67 427.754,427.754 0,236.084 -191.67,427.755 -427.754,427.755 -236.084,0 -427.754,-191.671 -427.754,-427.755 0,-236.084 191.67,-427.754 427.754,-427.754 z m 0,39.349 c -214.367,0 -388.405,174.039 -388.405,388.405 0,214.367 174.038,388.406 388.405,388.406 214.367,0 388.406,-174.039 388.406,-388.406 0,-214.366 -174.039,-388.405 -388.406,-388.405 z"
     style="fill:currentColor"
     id="path11" /></g>
            </g>
        </g>
    </g>
</svg>
