<?xml version="1.0" encoding="UTF-8" standalone="no"?>
<!DOCTYPE svg PUBLIC "-//W3C//DTD SVG 1.1//EN" "http://www.w3.org/Graphics/SVG/1.1/DTD/svg11.dtd">
<svg width="100%" height="100%" viewBox="0 0 1179 962" version="1.1" xmlns="http://www.w3.org/2000/svg"
     xmlns:xlink="http://www.w3.org/1999/xlink" xml:space="preserve" xmlns:serif="http://www.serif.com/"
     style="fill-rule:evenodd;clip-rule:evenodd;stroke-linejoin:round;stroke-miterlimit:2;">
    <g id="Logo1" transform="matrix(0.936772,0,0,0.564627,1292.66,20.2819)">
        <rect x="-1379.91" y="-35.921" width="1258.52" height="1703.35" style="fill:none;"/>
        <g transform="matrix(0.10675,0,0,-0.177108,-1295.7,1686.92)">
            <g id="Background" transform="matrix(9.74625,0,0,-9.74625,49.4449,9515.3)">
                <circle cx="510.509" cy="471.403" r="409.714" style="fill:none;"/>
            </g>
            <g id="Logo" transform="matrix(10,0,0,-10,495,8967.03)">
                <g transform="matrix(0.1,0,0,-0.1,-59.0229,922.674)">
                    <g transform="matrix(10,0,0,-10,590.229,9226.74)">
                        <path d="M691.234,651.385C488.687,832.066 222.478,705.233 155.848,591.663C164.213,591.596 184.571,581.868 193.952,574.715C206.022,565.512 215.524,553.692 229.624,501.392C235.124,480.992 238.844,453.589 247.644,413.389C261.744,348.889 280.874,299.07 305.268,261.861C325.532,230.951 375.299,188.564 434.613,177.609C528.068,160.349 579.383,209.066 587.756,216.396C603.496,211.517 630.906,216.975 646.687,229.569C662.707,242.354 673.219,269.751 667.072,292.484C661.332,313.708 649.873,327.02 631.711,336.452C559.838,373.78 573.913,483.38 587.889,521.358C611.09,584.399 639.281,635.529 691.234,651.385ZM652.228,301.023C656.599,299.293 665.173,251.978 625.411,232.29C617.17,228.21 597.813,225.436 586.164,230.208C559.037,207.887 546.081,201.473 525.892,194.144C501.914,185.44 451.844,184.421 422.377,194.674C391.277,202.874 352.677,226.674 332.377,250.274C311.877,273.974 292.082,312.159 278.682,352.559C263.682,397.959 250.419,472.723 250.25,512.768C249.845,608.537 298.292,724.236 465.977,733.374C544.686,737.663 555.577,675.774 553.677,633.174C550.221,555.683 527.569,473.502 482.237,434.601C465.262,420.033 440.174,414.264 435.177,406.529C428.154,395.659 444.081,365.3 462.135,348.173C482.988,328.391 510.561,317.463 510.489,317.393C504.619,311.706 494.867,295.26 509.396,275.513C537.795,236.913 570.385,235.537 571.868,236.074C572.671,236.364 554.033,244.288 537.133,259.184C520.299,274.022 504.229,292.356 512.441,308.162C516.576,316.121 536.934,327.995 582.977,307.859C593.621,303.203 612.853,291.271 610.096,273.201C609.045,266.313 606.17,263.677 601.497,262.93C589.319,260.983 586.255,251.903 593.493,246.258C602.788,239.01 611.096,237.379 622.268,238.297C629.304,238.876 633.218,239.528 636.196,242.366C639.377,245.397 639.427,252.238 635.811,258.207C630.921,266.277 638.621,306.41 652.228,301.023ZM526.606,321.86C523.078,321.329 520.916,320.493 519.302,319.516C509.917,325.957 501.179,334.123 492.83,347.603C476.096,374.619 474.008,405.508 475.353,405.982C476.589,406.419 476.366,375.616 500.371,344.349C509.551,332.392 518.241,326.341 526.606,321.86Z"
                              style="fill:rgb(0,101,149);"/>
                    </g>
                    <g transform="matrix(0.992661,0.120932,-0.120932,0.992661,858.236,-586.274)">
                        <path d="M5131.54,6966.49C4938.41,6895.6 4842.62,6678.89 4865.09,6593.72C4879.06,6540.77 5164.63,6510.39 5367.03,6608.58C5552.43,6698.52 5684.79,6836.35 5651.63,6903.2C5627.79,6951.25 5520.2,6949.1 5426.53,6964.02C5332.65,6978.98 5252.6,7010.93 5131.54,6966.49Z"
                              style="fill:rgb(0,101,149);fill-rule:nonzero;"/>
                    </g>
                </g>
                <g transform="matrix(1.18412,0.207529,-0.206127,1.17612,330.633,-13.8407)">
                    <path d="M214.358,227.235C217.605,234.216 185.376,227.676 151.884,251.707C114.087,278.827 105.048,312.134 103.719,311.322C102.273,310.439 114.069,277.677 141.993,253.138C172.855,226.018 211.003,220.02 214.358,227.235Z"
                          style="fill:rgb(0,101,149);"/>
                </g>
                <g transform="matrix(0.966134,-0.0415814,0.0388542,0.902769,310.734,110.59)">
                    <path d="M214.358,227.235C217.605,234.216 185.376,227.676 151.884,251.707C114.087,278.827 105.048,312.134 103.719,311.322C102.273,310.439 114.069,277.677 141.993,253.138C172.855,226.018 211.003,220.02 214.358,227.235Z"
                          style="fill:rgb(0,101,149);"/>
                </g>
                <g transform="matrix(1,0,0,1,-0.278048,-0.278048)">
                    <path d="M516.904,320.904C527.734,312.446 542.233,307.303 544.576,310.371C546.925,313.447 537.813,315.043 525.905,323.199C521.168,322.99 518.973,322.138 516.904,320.904Z"
                          style="fill:rgb(0,101,149);"/>
                </g>
                <g transform="matrix(0.760069,0.324638,-0.335192,0.784779,444.933,39.7841)">
                    <path d="M214.358,227.235C217.605,234.216 185.376,227.676 151.884,251.707C114.087,278.827 105.048,312.134 103.719,311.322C102.273,310.439 114.069,277.677 141.993,253.138C172.855,226.018 211.003,220.02 214.358,227.235Z"
                          style="fill:rgb(0,101,149);"/>
                </g>
                <g transform="matrix(-0.391193,0.169162,0.280637,0.648979,665.967,80.438)">
                    <path d="M214.358,227.235C217.605,234.216 185.376,227.676 151.884,251.707C114.087,278.827 105.048,312.134 103.719,311.322C102.273,310.439 114.069,277.677 141.993,253.138C172.855,226.018 211.003,220.02 214.358,227.235Z"
                          style="fill:rgb(0,101,149);"/>
                </g>
                <g transform="matrix(-0.474761,0.120136,0.248622,0.982514,690.745,23.9621)">
                    <path d="M214.358,227.235C217.605,234.216 185.376,227.676 151.884,251.707C114.087,278.827 105.048,312.134 103.719,311.322C102.273,310.439 114.069,277.677 141.993,253.138C172.855,226.018 211.003,220.02 214.358,227.235Z"
                          style="fill:rgb(0,101,149);"/>
                </g>
                <g transform="matrix(-0.376649,0.0512899,0.117789,0.864987,706.622,78.2042)">
                    <path d="M214.358,227.235C217.605,234.216 185.376,227.676 151.884,251.707C114.087,278.827 105.048,312.134 103.719,311.322C102.273,310.439 114.069,277.677 141.993,253.138C172.855,226.018 211.003,220.02 214.358,227.235Z"
                          style="fill:rgb(0,101,149);"/>
                </g>
                <path d="M655.176,300.083C655.573,298.95 655.79,297.65 655.826,297.434C655.949,296.695 656.412,295.868 656.874,295.192C661.879,298.573 667.757,304.298 673.595,312.916C687.003,332.709 695.305,360.443 694.864,361.281C694.46,362.052 687.132,333.706 669.701,312.185C664.235,305.437 659.28,301.992 655.176,300.083Z"
                      style="fill:rgb(0,101,149);"/>
            </g>
            <g id="Border-1" serif:id="Border 1" transform="matrix(8.65672,0,0,-8.65672,704.085,8721.54)">
                <path d="M499.14,11.287C735.224,11.287 926.894,202.957 926.894,439.041C926.894,675.125 735.224,866.796 499.14,866.796C263.056,866.796 71.386,675.125 71.386,439.041C71.386,202.957 263.056,11.287 499.14,11.287ZM499.14,50.636C284.773,50.636 110.735,224.675 110.735,439.041C110.735,653.408 284.773,827.447 499.14,827.447C713.507,827.447 887.546,653.408 887.546,439.041C887.546,224.675 713.507,50.636 499.14,50.636Z"
                      style="fill:rgb(0,101,149);"/>
            </g>
        </g>
    </g>
</svg>
