<?xml version="1.0" encoding="UTF-8" standalone="no"?>
<svg
   xmlns:dc="http://purl.org/dc/elements/1.1/"
   xmlns:cc="http://creativecommons.org/ns#"
   xmlns:rdf="http://www.w3.org/1999/02/22-rdf-syntax-ns#"
   xmlns:svg="http://www.w3.org/2000/svg"
   xmlns="http://www.w3.org/2000/svg"
   xmlns:sodipodi="http://sodipodi.sourceforge.net/DTD/sodipodi-0.dtd"
   xmlns:inkscape="http://www.inkscape.org/namespaces/inkscape"
   inkscape:version="1.0 (6e3e5246a0, 2020-05-07)"
   sodipodi:docname="Goethe-weiss.svg"
   id="svg107"
   viewBox="0 0 149.99998 134.02197"
   height="134.02197"
   width="149.99998"
   y="0px"
   x="0px"
   version="1.1">
  <metadata
     id="metadata111">
    <rdf:RDF>
      <cc:Work
         rdf:about="">
        <dc:format>image/svg+xml</dc:format>
        <dc:type
           rdf:resource="http://purl.org/dc/dcmitype/StillImage" />
        <dc:title />
      </cc:Work>
    </rdf:RDF>
  </metadata>
  <sodipodi:namedview
     inkscape:current-layer="Layer 1"
     inkscape:window-maximized="1"
     inkscape:window-y="27"
     inkscape:window-x="72"
     inkscape:cy="50.805835"
     inkscape:cx="13.388673"
     inkscape:zoom="5.6320274"
     showgrid="false"
     id="namedview109"
     inkscape:window-height="1016"
     inkscape:window-width="1848"
     inkscape:pageshadow="2"
     inkscape:pageopacity="0"
     guidetolerance="10"
     gridtolerance="10"
     objecttolerance="10"
     borderopacity="1"
     bordercolor="#666666"
     pagecolor="#ffffff"
     inkscape:document-rotation="0" />
  <g
     transform="matrix(0.33200752,0,0,0.33200752,-99.348855,-0.25287993)"
     id="Layer 1">
    <path
       style="stroke-width:2.98474"
       id="path68"
       fill="#fffffe"
       d="m 472.30435,29.514624 c 1.07747,0 2.79668,0.432787 3.87716,0.432787 1.07747,0 6.19631,2.184827 8.50948,3.584666 1.94006,1.184941 4.00549,3.110093 6.42614,4.020437 3.18173,1.238667 9.187,2.307201 10.2645,2.307201 1.88634,0 13.1985,-2.157965 13.35667,-2.157965 4.4174,0 14.17751,6.279885 17.2458,10.428665 1.0208,1.399841 1.49834,4.435315 1.49834,5.512805 0,1.07749 -0.43576,4.092072 -0.43576,5.169559 0,1.990819 -2.5818,5.172547 -4.51891,5.172547 -2.37286,0 -5.17551,-9.178059 -5.9217,-9.983939 -3.93984,-4.417405 -16.21606,-10.700274 -22.51387,-10.700274 -0.54021,0 -4.52186,0.271613 -4.52186,2.58478 0,4.847211 12.49113,6.790273 12.49113,11.637481 0,1.558031 -2.58777,2.581795 -3.45036,2.581795 -2.95787,0 -10.52418,-6.261972 -11.92402,-6.799226 -4.19952,-1.671451 -9.01093,-2.683275 -13.28803,-3.539893 -5.20539,-0.125346 -6.01724,0 -6.42614,-0.003 -7.39915,1.934109 -13.46116,8.658715 -18.26955,15.422125 -1.21183,1.707268 -1.14316,5.691889 -2.22066,5.691889 -1.07451,0 -5.38743,-1.29239 -6.45896,-1.29239 -9.15418,0 -12.65826,6.354498 -12.65826,14.431192 0,2.262428 -1.12525,4.826314 -2.63253,6.602233 -1.13122,1.3491 -4.31296,3.095168 -5.39344,3.095168 -3.12201,0 -5.16954,-2.36988 -5.16954,-4.09207 0,-1.080474 0.13125,-1.937092 0.42979,-3.020551 0.29235,-1.035705 2.68924,-5.626226 4.46518,-7.888654 7.64988,-9.69442 18.21882,-18.314334 29.68915,-24.34648 1.88634,-0.967055 4.90688,-0.811849 6.90368,-1.728162 1.0775,-0.483529 8.92437,-5.727708 8.92437,-8.258762 0,-1.07749 -2.00873,-2.811621 -3.26529,-3.232467 0,0 -12.79557,0.567098 -13.90292,0.370105 -0.19703,-0.173097 -0.49846,-0.582021 -0.49846,-1.656526 0,-2.050513 2.7221,-3.181726 3.9339,-4.112964 3.33991,-2.569858 12.00461,-6.232127 15.45497,-6.232127" />
    <path
       style="stroke-width:2.98474"
       id="path70"
       fill="#fffffe"
       d="m 582.37837,34.687171 c 1.0775,0 1.7013,0.176111 2.66835,0.877512 0.50144,0.474572 0.61783,0.716335 0.58799,1.262543 -0.0152,0.495463 -0.12821,0.841693 -0.58799,1.128228 -4.32191,1.381932 -14.50878,15.075895 -15.37734,17.627843 -0.88348,2.587764 -1.7222,6.247049 -1.7222,7.321555 0,1.7789 0.80586,3.665254 2.36988,3.665254 1.07747,0 4.74274,-1.611757 6.84995,-2.044544 3.87418,-0.805877 10.59581,-1.835613 11.67331,-1.835613 6.89173,0 18.31133,6.357486 18.31133,12.926887 0,1.074505 -0.0417,2.557917 -0.96107,3.838369 -0.88647,1.229711 -3.18174,-2.211687 -4.50097,-2.886237 -1.94308,-0.987949 -5.52177,-1.814719 -6.59927,-1.814719 -10.45252,0 -11.68822,6.894736 -18.95603,6.894736 -3.23247,0 -5.50087,-0.188049 -8.89751,-4.390545 -1.71921,-2.098267 -1.04464,-5.802325 -2.44449,-8.658715 -0.7014,-1.450582 -2.93399,-2.54001 -4.01448,-3.835385 -1.02076,-1.238664 -2.14004,-3.095168 -2.62955,-4.817361 -0.31936,-1.238664 -0.62977,-2.919071 -0.20008,-4.706928 1.52221,-6.372407 3.41452,-10.210777 8.34531,-13.926769 1.45655,-1.101368 12.69406,-6.626111 16.08474,-6.626111" />
    <path
       style="stroke-width:2.98474"
       id="path72"
       fill="#fffffe"
       d="m 593.15028,85.523171 c 1.07449,0 5.55161,1.740099 8.23488,2.429574 10.89727,2.808636 15.33855,15.708655 17.50247,24.036065 0.25063,0.96407 0.57605,2.17289 0.57605,3.25038 0,1.07749 -0.0387,2.346 -0.51036,4.14878 0,0 -0.17024,1.0357 -1.24765,1.0357 -2.58475,0 -4.90986,-2.02066 -7.9185,-5.68293 -3.76969,-4.62634 -5.71873,-10.61969 -9.22281,-15.520622 -2.04156,-2.796695 -5.06509,-5.378491 -7.57825,-7.623013 -0.7641,-0.689472 -3.3787,-2.357939 -3.5011,-3.918957 -0.0658,-0.880497 0.11938,-1.346113 0.46862,-1.626679 0.68946,-0.558146 2.11915,-0.528298 3.19665,-0.528298" />
    <path
       style="stroke-width:2.98474"
       id="path74"
       fill="#fffffe"
       d="m 615.7686,135.07275 c 4.30695,0 11.19872,6.02916 11.19872,10.33912 0,1.18196 -1.21478,2.7967 -1.9192,2.85341 -7.75134,0.80588 -11.86431,8.72736 -11.86431,14.16555 0,5.97842 3.99956,10.62267 10.6167,13.64919 1.39985,0.64172 3.63244,0.88647 4.70991,0.88647 1.0775,0 4.37861,-1.04466 6.75147,-2.39078 3.82344,-2.26243 5.78741,-9.44071 10.57491,-7.58122 3.65035,4.78453 4.82633,8.19608 4.82633,12.24039 0,6.46196 -14.38045,8.83183 -16.15935,8.83183 -6.78131,0 -16.47576,-4.17265 -22.45715,-11.27931 -2.47434,-2.96384 -4.64426,-6.74848 -6.19333,-10.12123 -1.75502,-3.81449 -3.0086,-8.59902 -3.0086,-11.34796 0,-4.84721 5.48891,-20.24546 12.9239,-20.24546" />
    <path
       style="stroke-width:2.98474"
       id="path76"
       fill="#fffffe"
       d="m 589.48501,183.53887 c 0,-1.0745 -0.4895,-5.22328 -1.02673,-7.37528 -0.64771,-2.48031 -3.21158,-4.36965 -4.76366,-3.58765 -0.55812,0.28654 -2.82652,3.96373 -2.82652,5.79636 0,1.07749 0.34324,5.24119 -0.57009,7.235 -2.04753,4.52187 -11.16589,10.21077 -14.9386,10.21077 -1.12823,0 -3.44737,-0.69843 -3.44737,-3.87418 0,-1.08048 2.15496,-3.01757 2.15496,-4.09208 0,-1.7789 -1.44458,-1.42073 -3.4742,-2.68327 0,0 -0.80589,-0.41488 0,-1.51028 2.9131,-1.2118 5.88888,-1.57594 8.90345,-2.22363 3.01756,-0.64768 8.35727,-7.96625 8.35727,-11.24946 0,-1.13122 -3.01759,-4.52187 -5.60237,-4.52187 -1.07747,0 -0.7402,0.57008 -0.7402,0.57008 0.58501,2.9728 -1.32822,8.46769 -3.91298,10.51522 -1.56103,1.23867 -3.96374,2.27138 -5.03527,2.27138 -1.07448,0 -3.03248,-0.22684 -3.519,-0.37309 -5.87396,-1.76994 -7.47078,-6.52164 -7.47078,-10.61371 0,-1.40582 0.5492,-0.88349 -0.57605,-2.36093 -1.15808,0.31937 -8.03788,3.3817 -8.03788,6.453 0,2.4236 7.32152,6.46195 7.32152,8.18116 0,4.47113 -6.89173,0.91929 -6.89173,4.74274 0,1.0745 2.58478,12.01057 2.58478,13.08806 v 6.5694 c 0,9.6407 6.46195,6.89474 6.46195,15.67284 0,1.77592 -3.98165,6.91265 -5.32774,7.45587 -1.28943,0.48054 -1.91025,1.22076 -2.98476,2.14304 -0.88647,1.16405 -0.74617,1.30433 -1.67143,2.89221 -1.47745,2.51613 -3.42649,2.30123 -5.22926,1.95798 -4.37861,-0.84169 -6.38436,-1.59384 -9.99289,-1.59384 -1.07153,0 -3.6593,2.87728 -4.73976,2.87728 -1.07153,0 -2.64149,-0.63575 -3.61453,-1.65653 -0.53424,-0.54322 -2.38182,-6.43509 -5.61428,-6.43509 -1.0715,0 -6.9186,2.6982 -8.00207,2.6982 -3.98165,0 -8.83182,-4.8472 -8.83182,-8.61991 0,-0.26863 0.0244,-3.77569 3.03248,-3.77569 2.2117,0 1.44461,2.6206 3.6593,3.77569 2.68924,-1.75801 6.45299,-6.45896 7.52748,-6.45896 1.0775,0 1.55506,0.0776 2.25647,0.5074 1.61774,0.96705 3.77569,5.36357 3.77569,8.10952 0,2.58478 3.01457,4.73976 5.60234,4.73976 5.4382,0 8.61692,-4.09207 8.61692,-9.2676 0,-1.0745 -2.15795,-8.61394 -2.15795,-9.69442 0,-1.07152 -0.006,-0.58799 0.10445,-1.05361 -0.10445,-1.33418 -0.10445,-2.64447 -0.2686,-3.45035 0.15227,-0.37309 1.45656,-14.4491 1.45656,-15.52958 0,-7.37528 -3.87418,-14.48491 -3.87418,-22.18553 0,-3.17874 0.57605,-11.53301 3.48617,-14.27599 5.86799,-5.54563 19.23663,-12.43739 29.90107,-12.43739 1.0775,0 7.76928,1.54311 11.10919,3.10711 1.02673,0.42981 4.24428,3.02652 5.74264,3.35186 2.19078,-1.82367 3.61451,-6.67386 3.61451,-9.47355 0,-9.80187 -12.49412,-17.28758 -12.49412,-28.43855 0,-1.0745 2.15202,-13.135815 2.15202,-14.213305 0,-1.080475 -0.37908,-3.319025 -0.59098,-4.984507 -1.18792,-8.455753 -11.36588,-17.418912 -18.36508,-17.418912 -1.07452,0 -18.31134,1.722193 -19.38585,1.722193 -10.66746,0 -17.44878,-6.894737 -29.08325,-6.894737 -1.07452,0 -11.70016,1.456548 -17.2458,1.832625 -23.6988,1.668467 -35.53028,18.741149 -35.53028,42.114603 0,1.07451 0.59993,5.01137 0.11329,7.05293 -2.74595,10.88235 -10.02274,18.52625 -10.02274,28.27738 l 1.29536,40.7088 c -0.86259,12.21353 -9.4795,5.71278 -9.4795,17.23684 0,1.0745 0.4328,6.55447 0.97301,9.51832 0.32235,1.77293 1.43864,3.70107 2.19081,4.66812 0.43277,0.59098 4.1637,2.40271 5.23523,2.40271 2.96085,0 4.67708,-5.68293 6.91561,-6.46493 2.42363,0.69246 0.65667,6.3545 1.02378,9.27058 0.75512,6.02021 4.48903,17.79201 4.88599,19.00381 0.7074,2.16393 1.51627,3.5787 2.16395,5.19344 1.02077,2.58776 3.322,6.38435 3.322,7.46184 0,0.19103 1.19987,3.23246 3.12503,7.94536 0.12242,-0.37906 0.30149,-0.47159 0.24485,-0.65067 h 1.07747 c 2.52509,2.13707 31.14868,30.41743 42.24593,30.62039 h 16.79811 c 7.00216,0 17.50545,-4.03835 17.50545,-14.21629 0,-8.88854 -9.91231,-10.33912 -15.93848,-10.33912 -1.0775,0 -8.66768,1.59982 -10.99279,1.71921 -1.1282,0.0597 -7.53942,-1.71921 -7.53942,-4.30399 0,-3.71898 9.58993,-4.30996 11.85237,-4.30996 1.0775,0 12.70601,3.0116 13.78649,3.0116 4.03835,0 10.12423,-2.42062 10.12423,-8.61395 0,-3.39066 -5.4382,-5.59936 -8.61396,-5.59936 -3.98759,0 -8.31248,3.65929 -12.99553,3.65929 -1.07749,0 -5.73368,-2.23856 -6.80817,-2.23856 -1.0775,0 -8.13341,3.32202 -10.06753,3.2653 -1.70426,-0.0507 -6.84995,-5.2203 -7.92745,-5.2203 -1.08046,0 -4.42935,3.14591 -5.50383,3.14591 -1.08048,0 -1.38194,-1.24165 -2.14008,-1.564 0.32235,-0.76409 0.87453,-7.32752 5.18151,-7.32752 1.08049,0 4.92781,2.82953 6.0053,2.82953 6.08586,0 5.43817,-5.16658 10.55701,-5.16658 6.02915,0 6.51866,7.32454 11.20469,7.32454 3.82046,0 5.11284,-6.89772 10.55104,-6.89772 4.42039,0 8.77512,5.17254 11.2017,5.17254 2.47732,0 5.0621,-3.44438 9.47652,-3.44438 1.0775,0 2.65343,2.37883 3.07728,3.72495 0.37905,1.23866 -0.009,2.51912 -0.009,3.81449 0,1.29239 0.49545,2.89818 1.19986,3.5966 0.588,0.59098 0.68648,1.35806 1.76398,1.35806 h 5.11582 c 5.92768,0 21.31699,-29.5638 21.63934,-30.75172 0.80887,-2.96384 1.89231,-7.81105 1.89231,-8.88556 0,-1.07749 0.81185,-5.82919 0.43578,-12.72094 -0.37607,-7.86776 3.87418,-13.67008 3.87418,-21.53486 m -93.75649,-4.10998 c -0.48053,-0.30444 -1.02077,-1.04764 -1.02077,-1.04764 1.80576,-2.97876 5.16957,-7.01114 5.16957,-9.48847 0,-1.72219 -4.54875,-5.12181 -5.77248,-4.95764 -2.61762,0.85661 -0.63873,4.5547 -0.85662,6.27689 -0.53726,3.87717 -5.65308,9.23776 -9.53025,9.23776 -1.88338,0 -6.72759,-2.11917 -7.80509,-3.24739 -4.51891,-4.7905 -2.31914,-5.47998 -2.31914,-9.6795 0,-1.0745 -0.43277,-0.64769 -0.36712,-1.35507 -0.27469,0.0627 -0.27469,-0.36712 -1.35508,-0.36712 -2.8564,0 -5.60533,4.52485 -5.60533,6.24705 0,3.28321 2.149,7.43796 6.87682,8.52142 -1.4028,2.98772 -2.40271,3.32499 -4.50395,3.32499 -8.12745,0 -7.16037,-10.76892 -10.76894,-10.76892 -1.07746,0 -2.15198,0.86258 -3.22948,0.86258 -1.08045,0 -3.15484,-1.99081 -4.12192,-2.79669 -1.7789,-1.45655 -1.48042,-3.07726 -1.48042,-4.09804 0,-14.9177 12.15982,-23.53463 29.08325,-24.5584 3.47423,0.43279 3.87719,0 4.31593,0 3.4623,0.43279 7.73347,0.67157 10.85847,2.28631 5.38746,2.74595 13.42534,7.75135 17.99797,13.30296 0.75512,0.91333 2.36689,7.56929 2.36689,9.61383 0,1.07749 -3.02356,13.05225 -3.01461,16.58916 0.003,2.54598 2.155,12.49111 2.155,13.57159 0,2.2087 0.28048,5.88589 -1.85354,8.81392 -1.89828,-0.25371 -8.49157,-10.80773 -8.49157,-14.63117 0,-5.65309 5.17554,-6.57239 5.17554,-14.21629 0,-1.40283 -0.2686,-2.58777 -1.72518,-2.58777 -1.07747,0 -5.65009,5.17255 -6.72759,5.16061 0,0 -2.31616,0.71633 -3.45036,-0.009 m 23.74953,132.82366 c -7.99311,-0.0509 -33.92746,-4.02937 -41.77433,-9.01388 9.48846,21.97959 19.159,43.37716 20.6633,43.37716 6.89177,0 26.93127,-24.45097 26.93127,-30.80545 0,-1.08048 -0.48351,-1.85652 -1.11928,-2.65644 -1.84158,-0.56707 -3.40855,-0.90139 -4.70096,-0.90139 m -41.77433,-9.01388 c -6.48881,-15.03113 -12.84332,-30.22641 -16.49364,-39.15674 -0.0448,0.13433 -0.11054,0.17014 -0.11054,0.45666 0,1.07451 10.63761,34.82887 16.50858,38.64932 0.0305,0.0183 0.0716,0.0329 0.0956,0.0509" />
    <path
       style="stroke-width:2.98474"
       id="path78"
       fill="#fffffe"
       d="m 472.50132,146.70426 c 3.5578,-0.2746 5.14271,-0.18208 6.50672,0 4.54576,1.08346 13.54176,4.90094 13.54176,10.77191 0,1.0745 -0.21195,2.15199 -1.28942,2.15199 -1.07747,0 -3.93089,-3.01458 -5.00838,-3.02055 h -2.88923 c -0.35219,0.3731 -0.29235,-0.20894 -0.29235,0.86856 0,1.0745 0.86259,1.0745 0.86259,2.15199 0,1.07749 -0.42979,1.07749 -0.50142,1.67146 -4.59351,-0.59695 -6.99025,0.53128 -12.3419,1.72816 -0.0807,-1.45954 -0.0807,-2.75193 -0.0627,-3.96373 -0.38502,-0.35817 -0.23296,-0.2925 -1.3073,-0.2925 -3.45036,0 -6.03216,6.46195 -9.48252,6.46195 -2.58177,0 -3.87418,-2.36988 -3.87418,-3.88016 0,-4.63231 5.51281,-11.18082 10.03467,-13.23133 1.61476,-0.69843 3.92495,-0.98198 6.10379,-1.41775" />
    <path
       style="stroke-width:2.98474"
       id="path80"
       fill="#fffffe"
       d="m 564.2849,149.71884 c 1.07451,0 2.06543,0.81185 3.46826,0.97004 3.66229,0.43577 10.53314,3.98462 10.53314,8.72438 0,1.08048 -0.4537,3.11308 -1.47745,4.95466 -1.90726,-1.78487 -4.0473,-4.35473 -6.5664,-6.4709 h -1.15211 c -0.34626,0.37608 -0.71337,-0.20894 -0.71337,0.86855 0,1.08048 0.40594,1.41179 0.85961,2.4057 -0.4925,0.55218 -0.42979,1.04466 -1.51028,1.04466 -0.63872,0 -5.1636,-2.15797 -7.74835,-2.15797 -4.52786,0 -10.34213,3.44737 -11.63451,3.44737 -1.0775,0 -1.9371,-1.2894 -1.9371,-2.36988 0,-5.16956 8.18414,-3.87418 8.18414,-7.75135 0,-1.9938 5.22329,-2.80267 5.38747,-2.80267 1.07448,0 3.22948,-0.86259 4.30695,-0.86259" />
    <path
       style="stroke-width:2.98474"
       id="path82"
       fill="#fffffe"
       d="m 482.64346,163.50533 c 2.90415,0 3.01457,2.63851 3.01457,3.45036 0,1.9938 -1.51027,4.30398 -3.23545,4.30398 -3.11906,0 -3.65628,-2.47434 -3.65628,-3.87717 0,-2.58179 1.34609,-3.87717 3.87716,-3.87717" />
    <path
       style="stroke-width:2.98474"
       id="path84"
       fill="#fffffe"
       d="m 559.97795,163.93812 c 2.47433,0 4.02937,2.36988 4.08905,4.09207 0.0566,1.71026 -2.36689,3.66525 -3.44436,3.66525 -1.99082,0 -3.39962,-2.5609 -3.45036,-4.30995 -0.0244,-0.86259 1.23866,-3.44737 2.80567,-3.44737" />
    <path
       style="stroke-width:2.98474"
       id="path86"
       fill="#fffffe"
       d="m 544.25137,220.59137 c 0,3.45035 -2.69521,6.24705 -5.81726,6.24705 -1.07749,0 -1.11331,0.003 -1.51027,-0.46263 -0.49846,-0.58203 0.0329,-1.95799 0.0329,-1.95799 -0.0304,-1.08048 1.70429,-2.96384 1.69235,-4.03835 -0.0244,-1.96395 -0.42981,-3.20859 -0.77604,-7.28275 4.62933,1.80278 6.37839,3.13397 6.37839,7.49467" />
    <path
       style="stroke-width:2.98474"
       id="path88"
       fill="#fffffe"
       d="m 593.60395,268.20386 c 1.34314,0.47158 1.80277,0.56411 2.18185,2.32212 1.90127,8.94823 4.03833,26.75815 4.03833,27.83564 0,4.95167 -4.28308,13.84319 -6.64997,17.82782 -3.17875,5.27701 -9.23479,13.74471 -14.51478,17.69947 -1.00883,0.75216 -17.2846,11.7121 -23.85399,12.29114 -4.66514,0.41486 -12.31502,-7.10963 -14.276,-9.98095 -2.74296,-4.02642 -4.76661,-8.33039 -6.76042,-12.10608 -1.39686,-2.6385 -3.73391,-6.77534 -3.73391,-7.85583 0,-1.61475 1.84757,-2.95488 2.76687,-3.11906 0.4268,-0.0509 10.557,-1.71022 14.16554,-3.26828 16.42499,-7.10963 38.01061,-19.68431 43.92933,-38.48516 0.37607,-1.23269 1.21777,-2.27138 2.70715,-3.16083" />
    <path
       style="stroke-width:2.98474"
       id="path90"
       fill="#fffffe"
       d="m 598.91677,323.80947 c 1.29838,0.0448 1.01184,2.69521 1.01184,3.56377 0.14039,5.22031 0.14039,2.47135 -0.11633,6.01721 -0.0926,5.90383 -4.10998,13.33282 -6.63803,17.69353 -2.42363,4.19951 -16.39515,25.68959 -25.44487,25.68959 -5.11582,0 -11.8464,-7.96924 -11.8464,-11.4196 0,-2.52805 3.55482,-3.6533 5.75753,-4.24726 2.21171,-0.59098 4.44427,-1.27746 6.43509,-2.14005 11.09128,-5.00838 19.19186,-16.1295 25.16132,-26.04181 1.37896,-2.2893 2.54301,-7.83494 3.73391,-8.52142 0.68648,-0.394 1.04763,-0.62082 1.94603,-0.59396" />
    <path
       style="stroke-width:2.98474"
       id="path92"
       fill="#fffffe"
       d="m 529.81123,331.53395 c 3.31304,0.9193 4.09804,7.64689 4.09804,9.91231 0,3.71601 -3.12503,15.71763 -8.61396,15.71763 -1.08046,0 -2.58479,-1.07153 -3.66226,-1.07153 -2.58478,0 -7.97222,5.38445 -7.97222,7.11261 0,3.33394 6.13363,3.88314 10.57491,4.50396 2.29527,0.31939 5.9426,0.0213 5.9426,0.0213 4.35474,-3.40261 3.03845,-10.10035 7.40811,-14.09093 0.85065,-0.38803 1.69235,-0.57904 3.36978,-0.97901 h 1.45356 c 0.16415,0.15531 5.28597,8.06775 5.28597,10.10931 0,9.37506 -22.45417,14.43417 -26.49253,14.43417 -10.1809,0 -15.29676,-16.91151 -15.29676,-22.40343 0,-4.89793 2.20872,-8.1871 6.67686,-8.1871 1.0775,0 8.18713,2.58475 9.26463,2.58475 4.03832,0 5.16954,-4.41143 5.16954,-6.67683 0,-1.07451 -0.91929,-4.52487 -0.86259,-5.60237 0.16415,-2.88024 1.74607,-5.39639 3.65632,-5.38445" />
    <path
       style="stroke-width:2.98474"
       id="path94"
       fill="#fffffe"
       d="m 393.36406,185.079 c 1.19691,-0.0358 2.69524,-0.13732 4.10103,0.53128 1.68936,2.32511 0.009,7.00517 3.42051,9.19895 0.82081,0.14627 1.6446,0.57605 2.72207,0.57605 4.85021,0 9.04674,-7.75732 9.69442,-7.75732 1.07451,0 3.06534,1.30134 4.93078,1.80875 0,0 0.34324,0.81782 0,2.23258 -0.30742,1.25657 -9.30939,12.38367 -10.8704,13.44325 -0.69841,0.47158 -2.1102,1.18493 -3.45633,1.72816 -1.61174,0.69544 -3.96072,1.03868 -5.03822,1.03868 -5.16656,0 -8.61692,-7.10963 -8.61692,-10.33912 0,-3.71599 1.47446,-8.92137 3.11306,-12.46126" />
    <path
       style="stroke-width:2.98474"
       id="path96"
       fill="#fffffe"
       d="m 454.45265,316.03124 c 0.68051,-0.37906 1.98784,-0.0122 1.98784,-0.0122 9.22281,12.10909 17.92034,26.20599 30.84424,32.39931 2.47731,1.18792 5.50383,2.46836 7.3902,4.35473 2.57881,2.63552 8.83779,12.75376 8.83779,16.63092 0,3.76674 -4.19951,3.87716 -5.38445,3.87716 -2.31616,0 -8.93034,-3.25634 -10.8704,-4.22338 -19.54704,-10.12719 -28.21771,-33.24994 -33.28876,-49.82717 0,0 -0.61784,-2.5818 0.48354,-3.19964" />
    <path
       style="stroke-width:2.98474"
       id="path98"
       fill="#fffffe"
       d="m 429.84052,319.85468 c 2.58479,0 7.34543,8.82586 8.42293,10.55104 0.86256,1.39985 9.37502,13.68203 11.63746,17.5592 4.79052,8.13639 18.28749,25.36727 18.27555,26.44773 0,0 0.82973,2.20573 -0.0183,3.02355 -0.39099,0.37607 -0.18516,0.58203 -1.26552,0.58203 -1.0775,0 -4.15474,0.24484 -6.79026,-2.34899 -2.1311,-2.09531 -32.42021,-48.11392 -32.42021,-53.22977 0,-1.0775 1.08049,-2.58479 2.15799,-2.58479" />
    <path
       style="stroke-width:2.98474"
       id="path100"
       fill="#fffffe"
       d="m 459.8938,256.55444 c 0.0746,0.24774 1.39686,6.85892 1.39686,7.93939 0,1.07451 2.34899,5.23523 3.53393,7.65883 2.64149,5.33074 6.11572,11.21962 9.88246,15.89968 4.41741,5.54862 13.1985,12.61051 19.06649,16.43395 7.76029,5.00839 17.87259,7.66778 25.90152,7.7215 1.28644,0 2.85639,0.3313 4.692,0.89841 0.64171,0.79991 1.1163,1.57894 1.1163,2.65641 0,6.30079 -20.03353,30.80544 -26.92232,30.80544 -3.71899,0 -8.53037,-4.2592 -11.78074,-6.37238 -10.11528,-6.57539 -20.55587,-18.07557 -26.63876,-28.19977 -3.23247,-5.4382 -10.47941,-17.39803 -10.47941,-23.15857 0,-1.08048 0.42981,-3.88016 0.42981,-4.95765 0,-1.07748 3.87717,-14.00139 3.87717,-15.07888 0,-1.07748 4.30698,-11.63151 4.30698,-12.709 l 1.61771,0.46264" />
    <path
       style="stroke-width:2.98474"
       id="path102"
       fill="#fffffe"
       d="m 743.64359,404.43313 c -0.003,-0.24759 -0.51935,-24.91955 -18.09646,-40.18946 -13.27609,-11.53303 -51.06881,-28.23561 -73.64534,-38.21357 -9.87053,-4.36068 -17.00105,-7.51256 -19.89923,-9.19895 -1.08944,-0.59097 -3.63539,-1.97888 -3.5578,-4.7875 0.0304,-0.92526 0.0417,-1.30435 4.54275,-11.53302 l 0.32238,-0.74022 c 3.32797,-7.64092 6.33061,-13.94766 8.98105,-19.51121 7.35438,-15.45197 10.23167,-21.92885 7.56631,-27.07751 -3.15487,-6.09782 -14.8819,-12.33591 -35.34525,-22.83621 l -2.22062,-1.14017 0.22992,-2.48628 c 0.22992,-2.51912 2.30721,-6.15452 7.64987,-13.4134 l 1.73414,-2.35495 2.46239,0.69245 c 2.6206,0.73724 5.07106,1.5252 7.3902,2.27139 12.84033,4.12789 19.28438,6.19631 29.08623,-7.17829 5.75757,-7.86776 6.10976,-20.33201 3.89809,-29.19369 -1.95203,-7.84687 -3.07131,-8.77512 -9.28552,-13.92677 l -1.58787,-1.3103 c -1.27152,-0.98795 -3.63841,-2.82953 -3.44737,-5.72174 0.28656,-4.15475 1.61472,-7.98416 2.89519,-11.68523 1.61174,-4.6532 3.13697,-9.04972 2.71312,-14.04019 l -0.14922,-1.82368 c -0.92231,-11.23752 -3.37277,-41.084869 -16.17431,-44.385987 l -1.6953,-0.435772 -2.19081,-4.718866 0.71635,-1.555046 c 6.65295,-14.374482 -1.68041,-32.975348 -13.58355,-42.654842 -8.30352,-6.75147 -16.8518,-8.124448 -22.86008,-3.66227 l -3.8891,2.88624 -1.75503,-4.512919 c -2.02962,-5.202394 -4.50992,-8.297564 -7.38124,-9.198954 -2.97876,-0.931237 -6.97235,0.265642 -11.88821,3.563774 l -3.22949,2.166917 -3.58167,-5.972454 C 561.49129,11.334606 556.90374,7.5947328 546.83624,8.2155577 531.27086,9.1855965 511.48503,11.242079 496.5524,18.611389 l -2.0714,1.020779 -1.82367,-1.408795 c -12.25532,-9.4705631 -30.05925,-7.870745 -52.91933,4.751698 -8.82589,4.871087 -10.48538,13.064184 -11.58377,18.484463 -0.66559,3.280221 -1.19091,5.873957 -3.52796,7.115606 l -1.59085,0.841696 c -13.6313,7.20515 -26.50446,14.01333 -26.31343,29.814513 0.10446,8.181157 -3.63542,10.900252 -6.64104,13.088063 -1.97587,1.435658 -3.53691,2.572839 -4.68902,5.471017 -0.24759,0.701413 -0.39099,3.465281 -0.29844,5.787401 -0.0183,6.12467 1.00289,11.06143 2.08035,16.2877 0.63575,3.07129 1.29241,6.24705 1.76398,9.7571 0.59695,4.4383 -1.89529,7.30961 -4.09505,9.84663 -4.06817,4.69201 -9.13627,10.52716 2.01768,32.94849 l 0.95215,1.9162 -1.18795,1.78189 c -7.1723,10.73907 -10.91517,28.72807 -4.75766,40.24019 3.4802,6.50971 9.70038,9.80784 18.48744,9.80784 7.23203,0 13.58952,-4.21146 17.79799,-6.99622 2.8743,-1.90426 4.64425,-3.04144 6.62911,-2.94593 l 1.91916,0.10445 1.01781,1.63265 c 2.10722,3.38469 4.6114,6.68581 7.03204,9.87948 l 0.84764,1.11927 -0.1075,1.39686 c -0.21196,2.72506 -2.46837,4.50098 -10.27644,10.23465 -8.54231,6.27989 -24.44497,17.96214 -24.18231,25.54336 0.10445,3.01757 7.1156,14.69982 11.75388,22.43028 6.23809,10.39584 9.93022,16.67869 10.55999,20.30815 l 1.48341,4.01746 -2.87132,1.51027 c -14.53865,7.626 -28.5878,13.78649 -42.1743,19.747 -42.56828,18.66654 -73.323,32.15157 -73.15285,70.22784 l -7.39321,0.0329 c -0.1879,-42.92946 34.13046,-57.9755 77.57923,-77.03005 12.62245,-5.53668 25.65378,-11.24945 39.01645,-18.1263 -1.10435,-3.09216 -5.83515,-10.97189 -9.384,-16.88464 -7.8618,-13.09702 -12.64333,-21.37966 -12.80452,-25.97317 -0.39995,-11.48525 15.55046,-23.20034 27.19392,-31.75757 2.14303,-1.57594 4.64724,-3.41752 6.22317,-4.7129 -1.28641,-1.71622 -2.56984,-3.46826 -3.79957,-5.27104 -0.34622,0.22685 -0.69842,0.45965 -1.0327,0.68052 -4.64127,3.07428 -12.41947,8.22295 -21.87514,8.22295 -14.60729,0 -21.66022,-7.45587 -25.0061,-13.71188 -7.37229,-13.79544 -3.54287,-33.47678 3.97867,-46.01267 -11.13903,-23.34659 -6.16049,-32.17544 -0.0658,-39.2015 1.81773,-2.09827 2.49227,-2.98474 2.35495,-4.01746 -0.44172,-3.25336 -1.06851,-6.30077 -1.68038,-9.24969 -1.10734,-5.36655 -2.2505,-10.91517 -2.23259,-17.64575 -0.0716,-1.68637 -0.14039,-6.24705 0.82081,-8.6617 1.94602,-4.883027 4.99047,-7.094714 7.2111,-8.71244 2.51017,-1.823672 3.65034,-2.656415 3.59663,-7.01711 -0.24485,-20.320074 16.66377,-29.259355 30.25028,-36.440627 l 0.77899,-0.411894 c 0.17298,-0.61784 0.3761,-1.626679 0.5492,-2.480316 1.19986,-5.927682 3.43544,-16.96523 15.25498,-23.486875 24.62704,-13.5954666 44.50837,-15.4280939 59.14849,-5.482958 15.79522,-7.1663479 35.47954,-9.2108911 51.06284,-10.1809299 14.58342,-0.90437462 21.06328,6.0978128 27.97295,15.3743689 5.58146,-3.056369 10.49132,-3.862247 14.92962,-2.468376 4.14582,1.29836 7.59018,4.539781 10.28244,9.652632 8.31844,-3.763751 18.49938,-1.620711 28.05648,6.151537 13.24625,10.777878 23.13767,31.175553 16.69064,48.913832 15.4102,6.963388 17.76814,35.739216 18.93517,49.964456 l 0.14922,1.80577 c 0.55517,6.55149 -1.38492,12.14787 -3.09515,17.0876 -1.05064,3.02951 -2.04454,5.9068 -2.40274,8.74528 0.18516,0.15223 0.38207,0.30742 0.5104,0.40592 l 1.76995,1.45357 c 6.50671,5.3964 9.19897,7.62898 11.73896,17.8308 2.43258,9.76009 2.55494,24.87478 -5.10687,35.34523 -12.95076,17.6756 -24.23606,14.04915 -37.31216,9.84664 -1.49836,-0.48054 -3.0534,-0.98198 -4.67708,-1.47446 -1.99083,2.77282 -3.18472,4.62037 -3.90406,5.85008 42.59219,21.97063 43.62788,25.37621 28.04757,58.10681 -2.62359,5.51579 -5.59936,11.76284 -8.87659,19.29035 l -0.33728,0.76411 c -1.63564,3.71896 -2.61761,6.00826 -3.20262,7.41407 3.08322,1.62667 9.90631,4.64127 18.34416,8.36918 24.445,10.80475 61.38703,27.13126 75.50485,39.39554 20.13799,17.49351 20.63048,44.54717 20.63943,45.69328 l -7.39019,0.0746" />
  </g>
  <defs
     id="defs105" />
</svg>
